<mxfile host="Electron" modified="2024-04-15T10:09:49.735Z" agent="Mozilla/5.0 (Windows NT 10.0; Win64; x64) AppleWebKit/537.36 (KHTML, like Gecko) draw.io/24.2.5 Chrome/120.0.6099.109 Electron/28.1.0 Safari/537.36" etag="VMAss44ziTZ7aUhVfTPI" version="24.2.5" type="device">
  <diagram name="Page-1" id="FVMxHFwwywIalUzKK6Yx">
    <mxGraphModel dx="1434" dy="884" grid="1" gridSize="10" guides="1" tooltips="1" connect="1" arrows="1" fold="1" page="1" pageScale="1" pageWidth="850" pageHeight="1100" math="1" shadow="0">
      <root>
        <mxCell id="0" />
        <mxCell id="1" parent="0" />
        <mxCell id="7CqH2dM0GQDr5ASWJmky-1" value="" style="html=1;whiteSpace=wrap;" parent="1" vertex="1">
          <mxGeometry x="80" y="200" width="120" height="40" as="geometry" />
        </mxCell>
        <mxCell id="7CqH2dM0GQDr5ASWJmky-2" value="&lt;span style=&quot;font-weight: 400; text-wrap: wrap;&quot;&gt;$$\textbf{c: Client}$$&lt;/span&gt;" style="text;align=center;fontStyle=1;verticalAlign=middle;spacingLeft=3;spacingRight=3;strokeColor=none;rotatable=0;points=[[0,0.5],[1,0.5]];portConstraint=eastwest;html=1;" parent="1" vertex="1">
          <mxGeometry x="80" y="200" width="120" height="30" as="geometry" />
        </mxCell>
        <mxCell id="7CqH2dM0GQDr5ASWJmky-3" value="" style="html=1;whiteSpace=wrap;" parent="1" vertex="1">
          <mxGeometry x="280" y="200" width="120" height="40" as="geometry" />
        </mxCell>
        <mxCell id="7CqH2dM0GQDr5ASWJmky-4" value="&lt;span style=&quot;font-weight: 400; text-wrap: wrap;&quot;&gt;$$\textbf{d: Dispatcher}$$&lt;/span&gt;" style="text;align=center;fontStyle=1;verticalAlign=middle;spacingLeft=3;spacingRight=3;strokeColor=none;rotatable=0;points=[[0,0.5],[1,0.5]];portConstraint=eastwest;html=1;" parent="1" vertex="1">
          <mxGeometry x="280" y="200" width="120" height="30" as="geometry" />
        </mxCell>
        <mxCell id="7CqH2dM0GQDr5ASWJmky-5" value="" style="html=1;whiteSpace=wrap;" parent="1" vertex="1">
          <mxGeometry x="480" y="200" width="120" height="40" as="geometry" />
        </mxCell>
        <mxCell id="7CqH2dM0GQDr5ASWJmky-6" value="&lt;span style=&quot;font-weight: 400; text-wrap: wrap;&quot;&gt;$$\textbf{w: Worker}$$&lt;/span&gt;" style="text;align=center;fontStyle=1;verticalAlign=middle;spacingLeft=3;spacingRight=3;strokeColor=none;rotatable=0;points=[[0,0.5],[1,0.5]];portConstraint=eastwest;html=1;" parent="1" vertex="1">
          <mxGeometry x="480" y="200" width="120" height="30" as="geometry" />
        </mxCell>
        <mxCell id="7CqH2dM0GQDr5ASWJmky-7" value="" style="html=1;whiteSpace=wrap;" parent="1" vertex="1">
          <mxGeometry x="680" y="200" width="120" height="40" as="geometry" />
        </mxCell>
        <mxCell id="7CqH2dM0GQDr5ASWJmky-8" value="&lt;span style=&quot;font-weight: 400; text-wrap: wrap;&quot;&gt;$$\textbf{s: Sensor}$$&lt;/span&gt;" style="text;align=center;fontStyle=1;verticalAlign=middle;spacingLeft=3;spacingRight=3;strokeColor=none;rotatable=0;points=[[0,0.5],[1,0.5]];portConstraint=eastwest;html=1;" parent="1" vertex="1">
          <mxGeometry x="680" y="200" width="120" height="30" as="geometry" />
        </mxCell>
        <mxCell id="7CqH2dM0GQDr5ASWJmky-9" value="" style="html=1;whiteSpace=wrap;" parent="1" vertex="1">
          <mxGeometry x="880" y="200" width="120" height="40" as="geometry" />
        </mxCell>
        <mxCell id="7CqH2dM0GQDr5ASWJmky-10" value="&lt;span style=&quot;font-weight: 400; text-wrap: wrap;&quot;&gt;$$\textbf{ptt: PTT Server}$$&lt;/span&gt;" style="text;align=center;fontStyle=1;verticalAlign=middle;spacingLeft=3;spacingRight=3;strokeColor=none;rotatable=0;points=[[0,0.5],[1,0.5]];portConstraint=eastwest;html=1;" parent="1" vertex="1">
          <mxGeometry x="880" y="200" width="120" height="30" as="geometry" />
        </mxCell>
        <mxCell id="7CqH2dM0GQDr5ASWJmky-13" value="" style="html=1;whiteSpace=wrap;" parent="1" vertex="1">
          <mxGeometry x="1080" y="200" width="120" height="40" as="geometry" />
        </mxCell>
        <mxCell id="7CqH2dM0GQDr5ASWJmky-14" value="&lt;span style=&quot;font-weight: 400; text-wrap: wrap;&quot;&gt;$$\textbf{brs: BRS Server}$$&lt;/span&gt;" style="text;align=center;fontStyle=1;verticalAlign=middle;spacingLeft=3;spacingRight=3;strokeColor=none;rotatable=0;points=[[0,0.5],[1,0.5]];portConstraint=eastwest;html=1;" parent="1" vertex="1">
          <mxGeometry x="1080" y="200" width="120" height="30" as="geometry" />
        </mxCell>
        <mxCell id="7CqH2dM0GQDr5ASWJmky-15" value="" style="html=1;whiteSpace=wrap;" parent="1" vertex="1">
          <mxGeometry x="1280" y="200" width="120" height="40" as="geometry" />
        </mxCell>
        <mxCell id="7CqH2dM0GQDr5ASWJmky-16" value="&lt;span style=&quot;font-weight: 400; text-wrap: wrap;&quot;&gt;$$\textbf{f: FPGA}$$&lt;/span&gt;" style="text;align=center;fontStyle=1;verticalAlign=middle;spacingLeft=3;spacingRight=3;strokeColor=none;rotatable=0;points=[[0,0.5],[1,0.5]];portConstraint=eastwest;html=1;" parent="1" vertex="1">
          <mxGeometry x="1280" y="200" width="120" height="30" as="geometry" />
        </mxCell>
        <mxCell id="7CqH2dM0GQDr5ASWJmky-17" value="" style="endArrow=none;dashed=1;html=1;rounded=0;entryX=0.5;entryY=1;entryDx=0;entryDy=0;" parent="1" target="7CqH2dM0GQDr5ASWJmky-1" edge="1">
          <mxGeometry width="50" height="50" relative="1" as="geometry">
            <mxPoint x="140" y="800" as="sourcePoint" />
            <mxPoint x="140" y="280" as="targetPoint" />
          </mxGeometry>
        </mxCell>
        <mxCell id="7CqH2dM0GQDr5ASWJmky-18" value="" style="endArrow=none;dashed=1;html=1;rounded=0;entryX=0.5;entryY=1;entryDx=0;entryDy=0;" parent="1" edge="1">
          <mxGeometry width="50" height="50" relative="1" as="geometry">
            <mxPoint x="339.40999999999985" y="280" as="sourcePoint" />
            <mxPoint x="339.40999999999997" y="240" as="targetPoint" />
          </mxGeometry>
        </mxCell>
        <mxCell id="7CqH2dM0GQDr5ASWJmky-19" value="" style="endArrow=none;dashed=1;html=1;rounded=0;entryX=0.5;entryY=1;entryDx=0;entryDy=0;" parent="1" edge="1">
          <mxGeometry width="50" height="50" relative="1" as="geometry">
            <mxPoint x="539" y="800" as="sourcePoint" />
            <mxPoint x="539.41" y="240" as="targetPoint" />
          </mxGeometry>
        </mxCell>
        <mxCell id="7CqH2dM0GQDr5ASWJmky-20" value="" style="endArrow=none;dashed=1;html=1;rounded=0;entryX=0.5;entryY=1;entryDx=0;entryDy=0;" parent="1" edge="1">
          <mxGeometry width="50" height="50" relative="1" as="geometry">
            <mxPoint x="739" y="800" as="sourcePoint" />
            <mxPoint x="739.41" y="240" as="targetPoint" />
          </mxGeometry>
        </mxCell>
        <mxCell id="7CqH2dM0GQDr5ASWJmky-21" value="" style="endArrow=none;dashed=1;html=1;rounded=0;entryX=0.5;entryY=1;entryDx=0;entryDy=0;" parent="1" edge="1">
          <mxGeometry width="50" height="50" relative="1" as="geometry">
            <mxPoint x="940" y="800" as="sourcePoint" />
            <mxPoint x="939.41" y="240" as="targetPoint" />
          </mxGeometry>
        </mxCell>
        <mxCell id="7CqH2dM0GQDr5ASWJmky-22" value="" style="endArrow=none;dashed=1;html=1;rounded=0;entryX=0.5;entryY=1;entryDx=0;entryDy=0;" parent="1" edge="1">
          <mxGeometry width="50" height="50" relative="1" as="geometry">
            <mxPoint x="1139" y="800" as="sourcePoint" />
            <mxPoint x="1139.4099999999999" y="240" as="targetPoint" />
          </mxGeometry>
        </mxCell>
        <mxCell id="7CqH2dM0GQDr5ASWJmky-23" value="" style="endArrow=none;dashed=1;html=1;rounded=0;entryX=0.5;entryY=1;entryDx=0;entryDy=0;" parent="1" edge="1">
          <mxGeometry width="50" height="50" relative="1" as="geometry">
            <mxPoint x="1340" y="800" as="sourcePoint" />
            <mxPoint x="1339.4099999999999" y="240" as="targetPoint" />
          </mxGeometry>
        </mxCell>
        <mxCell id="7CqH2dM0GQDr5ASWJmky-24" value="" style="html=1;points=[[0,0,0,0,5],[0,1,0,0,-5],[1,0,0,0,5],[1,1,0,0,-5]];perimeter=orthogonalPerimeter;outlineConnect=0;targetShapes=umlLifeline;portConstraint=eastwest;newEdgeStyle={&quot;curved&quot;:0,&quot;rounded&quot;:0};" parent="1" vertex="1">
          <mxGeometry x="135" y="240" width="10" height="510" as="geometry" />
        </mxCell>
        <mxCell id="7CqH2dM0GQDr5ASWJmky-29" value="" style="endArrow=none;dashed=1;html=1;rounded=0;" parent="1" target="Ru7Y8vPBPEo4ew_ffaHh-33" edge="1">
          <mxGeometry width="50" height="50" relative="1" as="geometry">
            <mxPoint x="340" y="800" as="sourcePoint" />
            <mxPoint x="340" y="330" as="targetPoint" />
          </mxGeometry>
        </mxCell>
        <mxCell id="7CqH2dM0GQDr5ASWJmky-33" value="" style="html=1;points=[[0,0,0,0,5],[0,1,0,0,-5],[1,0,0,0,5],[1,1,0,0,-5]];perimeter=orthogonalPerimeter;outlineConnect=0;targetShapes=umlLifeline;portConstraint=eastwest;newEdgeStyle={&quot;curved&quot;:0,&quot;rounded&quot;:0};" parent="1" vertex="1">
          <mxGeometry x="535" y="360" width="10" height="390" as="geometry" />
        </mxCell>
        <mxCell id="7CqH2dM0GQDr5ASWJmky-38" value="" style="endArrow=classic;endFill=1;endSize=12;html=1;rounded=0;" parent="1" edge="1">
          <mxGeometry width="160" relative="1" as="geometry">
            <mxPoint x="545" y="430" as="sourcePoint" />
            <mxPoint x="735" y="430" as="targetPoint" />
          </mxGeometry>
        </mxCell>
        <mxCell id="7CqH2dM0GQDr5ASWJmky-39" value="$$5:\text{getBusOccupancyRate()}$$" style="text;html=1;align=center;verticalAlign=middle;whiteSpace=wrap;rounded=0;" parent="1" vertex="1">
          <mxGeometry x="535" y="400" width="200" height="30" as="geometry" />
        </mxCell>
        <mxCell id="7CqH2dM0GQDr5ASWJmky-40" value="" style="html=1;points=[[0,0,0,0,5],[0,1,0,0,-5],[1,0,0,0,5],[1,1,0,0,-5]];perimeter=orthogonalPerimeter;outlineConnect=0;targetShapes=umlLifeline;portConstraint=eastwest;newEdgeStyle={&quot;curved&quot;:0,&quot;rounded&quot;:0};" parent="1" vertex="1">
          <mxGeometry x="735" y="430" width="10" height="20" as="geometry" />
        </mxCell>
        <mxCell id="7CqH2dM0GQDr5ASWJmky-41" value="" style="endArrow=open;endFill=1;endSize=12;html=1;rounded=0;dashed=1;" parent="1" edge="1">
          <mxGeometry width="160" relative="1" as="geometry">
            <mxPoint x="735" y="450" as="sourcePoint" />
            <mxPoint x="545" y="450" as="targetPoint" />
          </mxGeometry>
        </mxCell>
        <mxCell id="7CqH2dM0GQDr5ASWJmky-42" value="$$6:\text{occupancy rate info}$$" style="text;html=1;align=center;verticalAlign=middle;whiteSpace=wrap;rounded=0;" parent="1" vertex="1">
          <mxGeometry x="545" y="450" width="200" height="30" as="geometry" />
        </mxCell>
        <mxCell id="7CqH2dM0GQDr5ASWJmky-48" value="" style="endArrow=classic;endFill=1;endSize=12;html=1;rounded=0;" parent="1" target="7CqH2dM0GQDr5ASWJmky-50" edge="1">
          <mxGeometry width="160" relative="1" as="geometry">
            <mxPoint x="545" y="530" as="sourcePoint" />
            <mxPoint x="930" y="530" as="targetPoint" />
          </mxGeometry>
        </mxCell>
        <mxCell id="7CqH2dM0GQDr5ASWJmky-49" value="$$7:\text{getBusTimetable(start, end)}$$" style="text;html=1;align=center;verticalAlign=middle;whiteSpace=wrap;rounded=0;" parent="1" vertex="1">
          <mxGeometry x="740" y="500" width="190" height="30" as="geometry" />
        </mxCell>
        <mxCell id="7CqH2dM0GQDr5ASWJmky-50" value="" style="html=1;points=[[0,0,0,0,5],[0,1,0,0,-5],[1,0,0,0,5],[1,1,0,0,-5]];perimeter=orthogonalPerimeter;outlineConnect=0;targetShapes=umlLifeline;portConstraint=eastwest;newEdgeStyle={&quot;curved&quot;:0,&quot;rounded&quot;:0};" parent="1" vertex="1">
          <mxGeometry x="935" y="530" width="10" height="20" as="geometry" />
        </mxCell>
        <mxCell id="7CqH2dM0GQDr5ASWJmky-51" value="" style="endArrow=open;endFill=1;endSize=12;html=1;rounded=0;dashed=1;" parent="1" edge="1">
          <mxGeometry width="160" relative="1" as="geometry">
            <mxPoint x="935" y="550" as="sourcePoint" />
            <mxPoint x="545" y="550" as="targetPoint" />
          </mxGeometry>
        </mxCell>
        <mxCell id="7CqH2dM0GQDr5ASWJmky-52" value="$$8:\text{timetable info}$$" style="text;html=1;align=center;verticalAlign=middle;whiteSpace=wrap;rounded=0;" parent="1" vertex="1">
          <mxGeometry x="540" y="550" width="200" height="30" as="geometry" />
        </mxCell>
        <mxCell id="7CqH2dM0GQDr5ASWJmky-53" value="" style="endArrow=classic;endFill=1;endSize=12;html=1;rounded=0;" parent="1" target="7CqH2dM0GQDr5ASWJmky-55" edge="1">
          <mxGeometry width="160" relative="1" as="geometry">
            <mxPoint x="545" y="630" as="sourcePoint" />
            <mxPoint x="1130" y="630" as="targetPoint" />
          </mxGeometry>
        </mxCell>
        <mxCell id="7CqH2dM0GQDr5ASWJmky-54" value="$$9:\text{getBikeSharing(start, end)}$$" style="text;html=1;align=center;verticalAlign=middle;whiteSpace=wrap;rounded=0;" parent="1" vertex="1">
          <mxGeometry x="930" y="600" width="200" height="30" as="geometry" />
        </mxCell>
        <mxCell id="7CqH2dM0GQDr5ASWJmky-55" value="" style="html=1;points=[[0,0,0,0,5],[0,1,0,0,-5],[1,0,0,0,5],[1,1,0,0,-5]];perimeter=orthogonalPerimeter;outlineConnect=0;targetShapes=umlLifeline;portConstraint=eastwest;newEdgeStyle={&quot;curved&quot;:0,&quot;rounded&quot;:0};" parent="1" vertex="1">
          <mxGeometry x="1135" y="630" width="10" height="20" as="geometry" />
        </mxCell>
        <mxCell id="7CqH2dM0GQDr5ASWJmky-56" value="" style="endArrow=open;endFill=1;endSize=12;html=1;rounded=0;dashed=1;" parent="1" edge="1">
          <mxGeometry width="160" relative="1" as="geometry">
            <mxPoint x="1135" y="650" as="sourcePoint" />
            <mxPoint x="545" y="650" as="targetPoint" />
          </mxGeometry>
        </mxCell>
        <mxCell id="7CqH2dM0GQDr5ASWJmky-57" value="$$10:\text{bike sharing info}$$" style="text;html=1;align=center;verticalAlign=middle;whiteSpace=wrap;rounded=0;" parent="1" vertex="1">
          <mxGeometry x="540" y="650" width="200" height="30" as="geometry" />
        </mxCell>
        <mxCell id="7CqH2dM0GQDr5ASWJmky-58" value="" style="endArrow=classic;endFill=1;endSize=12;html=1;rounded=0;" parent="1" target="7CqH2dM0GQDr5ASWJmky-60" edge="1">
          <mxGeometry width="160" relative="1" as="geometry">
            <mxPoint x="545" y="730" as="sourcePoint" />
            <mxPoint x="1330" y="730" as="targetPoint" />
          </mxGeometry>
        </mxCell>
        <mxCell id="7CqH2dM0GQDr5ASWJmky-59" value="$$11:\text{calculareRoute(occupancyRate, timetable, bikeRideSharing, constraints)}$$" style="text;html=1;align=center;verticalAlign=middle;whiteSpace=wrap;rounded=0;" parent="1" vertex="1">
          <mxGeometry x="830" y="700" width="505" height="30" as="geometry" />
        </mxCell>
        <mxCell id="7CqH2dM0GQDr5ASWJmky-60" value="" style="html=1;points=[[0,0,0,0,5],[0,1,0,0,-5],[1,0,0,0,5],[1,1,0,0,-5]];perimeter=orthogonalPerimeter;outlineConnect=0;targetShapes=umlLifeline;portConstraint=eastwest;newEdgeStyle={&quot;curved&quot;:0,&quot;rounded&quot;:0};" parent="1" vertex="1">
          <mxGeometry x="1335" y="730" width="10" height="20" as="geometry" />
        </mxCell>
        <mxCell id="7CqH2dM0GQDr5ASWJmky-61" value="" style="endArrow=open;endFill=1;endSize=12;html=1;rounded=0;dashed=1;" parent="1" edge="1">
          <mxGeometry width="160" relative="1" as="geometry">
            <mxPoint x="1335" y="750" as="sourcePoint" />
            <mxPoint x="545" y="750" as="targetPoint" />
          </mxGeometry>
        </mxCell>
        <mxCell id="7CqH2dM0GQDr5ASWJmky-62" value="$$12:\text{route and possible options}$$" style="text;html=1;align=center;verticalAlign=middle;whiteSpace=wrap;rounded=0;" parent="1" vertex="1">
          <mxGeometry x="545" y="750" width="200" height="30" as="geometry" />
        </mxCell>
        <mxCell id="7CqH2dM0GQDr5ASWJmky-63" value="$$\text{par}$$" style="shape=umlFrame;whiteSpace=wrap;html=1;pointerEvents=0;" parent="1" vertex="1">
          <mxGeometry x="470" y="390" width="730" height="300" as="geometry" />
        </mxCell>
        <mxCell id="7CqH2dM0GQDr5ASWJmky-64" value="" style="endArrow=open;endFill=1;endSize=12;html=1;rounded=0;dashed=1;" parent="1" target="7CqH2dM0GQDr5ASWJmky-24" edge="1">
          <mxGeometry width="160" relative="1" as="geometry">
            <mxPoint x="530" y="750" as="sourcePoint" />
            <mxPoint x="150" y="750" as="targetPoint" />
          </mxGeometry>
        </mxCell>
        <mxCell id="7CqH2dM0GQDr5ASWJmky-65" value="$$13:\text{response}$$" style="text;html=1;align=center;verticalAlign=middle;whiteSpace=wrap;rounded=0;" parent="1" vertex="1">
          <mxGeometry x="145" y="750" width="195" height="30" as="geometry" />
        </mxCell>
        <mxCell id="Ru7Y8vPBPEo4ew_ffaHh-31" value="" style="endArrow=classic;endFill=1;endSize=12;html=1;rounded=0;" edge="1" parent="1" target="Ru7Y8vPBPEo4ew_ffaHh-33">
          <mxGeometry width="160" relative="1" as="geometry">
            <mxPoint x="145" y="270" as="sourcePoint" />
            <mxPoint x="320" y="270" as="targetPoint" />
          </mxGeometry>
        </mxCell>
        <mxCell id="Ru7Y8vPBPEo4ew_ffaHh-32" value="$$1:\text{calculateRoute(payload)}$$" style="text;html=1;align=center;verticalAlign=middle;whiteSpace=wrap;rounded=0;" vertex="1" parent="1">
          <mxGeometry x="135" y="240" width="200" height="30" as="geometry" />
        </mxCell>
        <mxCell id="Ru7Y8vPBPEo4ew_ffaHh-33" value="" style="html=1;points=[[0,0,0,0,5],[0,1,0,0,-5],[1,0,0,0,5],[1,1,0,0,-5]];perimeter=orthogonalPerimeter;outlineConnect=0;targetShapes=umlLifeline;portConstraint=eastwest;newEdgeStyle={&quot;curved&quot;:0,&quot;rounded&quot;:0};" vertex="1" parent="1">
          <mxGeometry x="335" y="270" width="10" height="20" as="geometry" />
        </mxCell>
        <mxCell id="Ru7Y8vPBPEo4ew_ffaHh-34" value="" style="endArrow=classic;endFill=1;endSize=12;html=1;rounded=0;" edge="1" parent="1">
          <mxGeometry width="160" relative="1" as="geometry">
            <mxPoint x="345" y="270" as="sourcePoint" />
            <mxPoint x="535" y="270" as="targetPoint" />
          </mxGeometry>
        </mxCell>
        <mxCell id="Ru7Y8vPBPEo4ew_ffaHh-35" value="$$2:\text{enqueue(request)}$$" style="text;html=1;align=center;verticalAlign=middle;whiteSpace=wrap;rounded=0;" vertex="1" parent="1">
          <mxGeometry x="335" y="240" width="200" height="30" as="geometry" />
        </mxCell>
        <mxCell id="Ru7Y8vPBPEo4ew_ffaHh-36" value="" style="endArrow=open;endFill=1;endSize=12;html=1;rounded=0;dashed=1;" edge="1" parent="1">
          <mxGeometry width="160" relative="1" as="geometry">
            <mxPoint x="335" y="290" as="sourcePoint" />
            <mxPoint x="145" y="290" as="targetPoint" />
          </mxGeometry>
        </mxCell>
        <mxCell id="Ru7Y8vPBPEo4ew_ffaHh-37" value="$$3:\text{ack}$$" style="text;html=1;align=center;verticalAlign=middle;whiteSpace=wrap;rounded=0;" vertex="1" parent="1">
          <mxGeometry x="145" y="290" width="200" height="30" as="geometry" />
        </mxCell>
        <mxCell id="Ru7Y8vPBPEo4ew_ffaHh-38" value="" style="html=1;points=[[0,0,0,0,5],[0,1,0,0,-5],[1,0,0,0,5],[1,1,0,0,-5]];perimeter=orthogonalPerimeter;outlineConnect=0;targetShapes=umlLifeline;portConstraint=eastwest;newEdgeStyle={&quot;curved&quot;:0,&quot;rounded&quot;:0};" vertex="1" parent="1">
          <mxGeometry x="535" y="270" width="10" height="20" as="geometry" />
        </mxCell>
        <mxCell id="Ru7Y8vPBPEo4ew_ffaHh-39" value="" style="endArrow=classic;endFill=1;endSize=12;html=1;rounded=0;edgeStyle=orthogonalEdgeStyle;entryX=1;entryY=0;entryDx=0;entryDy=5;entryPerimeter=0;" edge="1" parent="1">
          <mxGeometry width="160" relative="1" as="geometry">
            <mxPoint x="540" y="330" as="sourcePoint" />
            <mxPoint x="545" y="365" as="targetPoint" />
            <Array as="points">
              <mxPoint x="600" y="330" />
              <mxPoint x="600" y="365" />
            </Array>
          </mxGeometry>
        </mxCell>
        <mxCell id="Ru7Y8vPBPEo4ew_ffaHh-40" value="$$4:\text{getFromQueue()}$$" style="text;html=1;align=center;verticalAlign=middle;whiteSpace=wrap;rounded=0;" vertex="1" parent="1">
          <mxGeometry x="540" y="300" width="200" height="30" as="geometry" />
        </mxCell>
      </root>
    </mxGraphModel>
  </diagram>
</mxfile>
